<svg width="40" height="40" viewBox="0 0 40 40" fill="none" xmlns="http://www.w3.org/2000/svg">
<path d="M21.6667 9.99998C21.6667 9.07951 20.9205 8.33331 20 8.33331C19.0796 8.33331 18.3334 9.07951 18.3334 9.99998V18.3333H10C9.07957 18.3333 8.33337 19.0795 8.33337 20C8.33337 20.9205 9.07957 21.6666 10 21.6666H18.3334V30C18.3334 30.9205 19.0796 31.6666 20 31.6666C20.9205 31.6666 21.6667 30.9205 21.6667 30V21.6666H30C30.9205 21.6666 31.6667 20.9205 31.6667 20C31.6667 19.0795 30.9205 18.3333 30 18.3333H21.6667V9.99998Z" fill="#005558" fill-opacity="0.5"/>
</svg>
