<svg width="20" height="20" viewBox="0 0 20 20" fill="none" xmlns="http://www.w3.org/2000/svg">
<rect width="20" height="20" fill="white"/>
<path d="M16.475 9.37502H13.1083C11.4333 9.37502 10.625 8.55835 10.625 6.89169V3.52502C10.625 1.85002 11.4417 1.04169 13.1083 1.04169H16.475C18.15 1.04169 18.9583 1.85835 18.9583 3.52502V6.89169C18.9583 8.55835 18.1417 9.37502 16.475 9.37502ZM13.1083 2.29169C12.125 2.29169 11.875 2.54169 11.875 3.52502V6.89169C11.875 7.87502 12.125 8.12502 13.1083 8.12502H16.475C17.4583 8.12502 17.7083 7.87502 17.7083 6.89169V3.52502C17.7083 2.54169 17.4583 2.29169 16.475 2.29169H13.1083Z" fill="#005558"/>
<path d="M6.89169 9.37502H3.52502C1.85002 9.37502 1.04169 8.63335 1.04169 7.10002V3.31669C1.04169 1.78335 1.85835 1.04169 3.52502 1.04169H6.89169C8.56669 1.04169 9.37502 1.78335 9.37502 3.31669V7.09169C9.37502 8.63335 8.55835 9.37502 6.89169 9.37502ZM3.52502 2.29169C2.40835 2.29169 2.29169 2.60835 2.29169 3.31669V7.09169C2.29169 7.80835 2.40835 8.11669 3.52502 8.11669H6.89169C8.00835 8.11669 8.12502 7.80002 8.12502 7.09169V3.31669C8.12502 2.60002 8.00835 2.29169 6.89169 2.29169H3.52502Z" fill="#005558"/>
<path d="M6.89169 18.9583H3.52502C1.85002 18.9583 1.04169 18.1417 1.04169 16.475V13.1083C1.04169 11.4333 1.85835 10.625 3.52502 10.625H6.89169C8.56669 10.625 9.37502 11.4417 9.37502 13.1083V16.475C9.37502 18.1417 8.55835 18.9583 6.89169 18.9583ZM3.52502 11.875C2.54169 11.875 2.29169 12.125 2.29169 13.1083V16.475C2.29169 17.4583 2.54169 17.7083 3.52502 17.7083H6.89169C7.87502 17.7083 8.12502 17.4583 8.12502 16.475V13.1083C8.12502 12.125 7.87502 11.875 6.89169 11.875H3.52502Z" fill="#005558"/>
<path d="M17.0833 15.2083H12.0833C11.7416 15.2083 11.4583 14.925 11.4583 14.5833C11.4583 14.2416 11.7416 13.9583 12.0833 13.9583H17.0833C17.425 13.9583 17.7083 14.2416 17.7083 14.5833C17.7083 14.925 17.425 15.2083 17.0833 15.2083Z" fill="#005558"/>
<path d="M14.5833 17.7083C14.2416 17.7083 13.9583 17.425 13.9583 17.0833V12.0833C13.9583 11.7416 14.2416 11.4583 14.5833 11.4583C14.925 11.4583 15.2083 11.7416 15.2083 12.0833V17.0833C15.2083 17.425 14.925 17.7083 14.5833 17.7083Z" fill="#005558"/>
</svg>
