<svg width="20" height="20" viewBox="0 0 20 20" fill="none" xmlns="http://www.w3.org/2000/svg">
<path d="M14.1666 18.9584H5.83329C2.15829 18.9584 1.04163 17.8417 1.04163 14.1667V5.83335C1.04163 2.15835 2.15829 1.04169 5.83329 1.04169H7.08329C8.54163 1.04169 8.99996 1.51669 9.58329 2.29169L10.8333 3.95835C11.1083 4.32502 11.15 4.37502 11.6666 4.37502H14.1666C17.8416 4.37502 18.9583 5.49169 18.9583 9.16669V14.1667C18.9583 17.8417 17.8416 18.9584 14.1666 18.9584ZM5.83329 2.29169C2.85829 2.29169 2.29163 2.85835 2.29163 5.83335V14.1667C2.29163 17.1417 2.85829 17.7084 5.83329 17.7084H14.1666C17.1416 17.7084 17.7083 17.1417 17.7083 14.1667V9.16669C17.7083 6.19169 17.1416 5.62502 14.1666 5.62502H11.6666C10.6 5.62502 10.25 5.25835 9.83329 4.70835L8.58329 3.04169C8.14996 2.46669 8.02496 2.29169 7.08329 2.29169H5.83329Z" fill="#005558"/>
</svg>
