<svg width="20" height="20" viewBox="0 0 20 20" fill="none" xmlns="http://www.w3.org/2000/svg">
<path d="M4.1083 18.9584C3.7583 18.9584 3.4333 18.875 3.14163 18.7084C2.49997 18.3334 2.1333 17.575 2.1333 16.6334V4.88335C2.1333 2.76669 3.8583 1.04169 5.97497 1.04169H14.0166C16.1333 1.04169 17.8583 2.76669 17.8583 4.88335V16.625C17.8583 17.5667 17.4916 18.325 16.85 18.7C16.2083 19.075 15.3666 19.0334 14.5416 18.575L10.475 16.3167C10.2333 16.1834 9.7583 16.1834 9.51663 16.3167L5.44997 18.575C4.99997 18.825 4.54163 18.9584 4.1083 18.9584ZM5.9833 2.29169C4.5583 2.29169 3.39163 3.45835 3.39163 4.88335V16.625C3.39163 17.1167 3.5333 17.4834 3.7833 17.625C4.0333 17.7667 4.42497 17.725 4.84997 17.4834L8.91663 15.225C9.5333 14.8834 10.4666 14.8834 11.0833 15.225L15.15 17.4834C15.575 17.725 15.9666 17.775 16.2166 17.625C16.4666 17.475 16.6083 17.1084 16.6083 16.625V4.88335C16.6083 3.45835 15.4416 2.29169 14.0166 2.29169H5.9833Z" fill="#005558"/>
<path d="M9.24169 11.0417C9.08336 11.0417 8.92502 10.9834 8.80002 10.8584L7.55002 9.60837C7.30836 9.3667 7.30836 8.9667 7.55002 8.72503C7.79169 8.48337 8.19169 8.48337 8.43336 8.72503L9.24169 9.53337L12.1334 6.6417C12.375 6.40003 12.775 6.40003 13.0167 6.6417C13.2584 6.88337 13.2584 7.28337 13.0167 7.52503L9.68336 10.8584C9.55836 10.9834 9.40002 11.0417 9.24169 11.0417Z" fill="#005558"/>
</svg>
