<svg width="30" height="30" viewBox="0 0 30 30" fill="none" xmlns="http://www.w3.org/2000/svg">
<path d="M26.25 8.4125C26.225 8.4125 26.1875 8.4125 26.15 8.4125C19.5375 7.75 12.9375 7.5 6.39996 8.1625L3.84996 8.4125C3.32496 8.4625 2.86246 8.0875 2.81246 7.5625C2.76246 7.0375 3.13746 6.5875 3.64996 6.5375L6.19996 6.2875C12.85 5.6125 19.5875 5.875 26.3375 6.5375C26.85 6.5875 27.225 7.05 27.175 7.5625C27.1375 8.05 26.725 8.4125 26.25 8.4125Z" fill="#BA0F43" fill-opacity="0.5"/>
<path d="M10.625 7.15C10.575 7.15 10.525 7.15 10.4625 7.1375C9.96245 7.05 9.61245 6.5625 9.69995 6.0625L9.97495 4.425C10.175 3.225 10.45 1.5625 13.3625 1.5625H16.6375C19.5625 1.5625 19.8375 3.2875 20.025 4.4375L20.2999 6.0625C20.3874 6.575 20.0374 7.0625 19.5374 7.1375C19.025 7.225 18.5375 6.875 18.4625 6.375L18.1875 4.75C18.0125 3.6625 17.9749 3.45 16.65 3.45H13.375C12.05 3.45 12.025 3.625 11.8375 4.7375L11.55 6.3625C11.475 6.825 11.075 7.15 10.625 7.15Z" fill="#BA0F43" fill-opacity="0.5"/>
<path d="M19.0125 28.4375H10.9875C6.625 28.4375 6.45 26.025 6.3125 24.075L5.5 11.4875C5.4625 10.975 5.8625 10.525 6.375 10.4875C6.9 10.4625 7.3375 10.85 7.375 11.3625L8.1875 23.95C8.325 25.85 8.375 26.5625 10.9875 26.5625H19.0125C21.6375 26.5625 21.6875 25.85 21.8125 23.95L22.625 11.3625C22.6625 10.85 23.1125 10.4625 23.625 10.4875C24.1375 10.525 24.5375 10.9625 24.5 11.4875L23.6875 24.075C23.55 26.025 23.375 28.4375 19.0125 28.4375Z" fill="#BA0F43" fill-opacity="0.5"/>
<path d="M17.075 21.5625H12.9125C12.4 21.5625 11.975 21.1375 11.975 20.625C11.975 20.1125 12.4 19.6875 12.9125 19.6875H17.075C17.5875 19.6875 18.0125 20.1125 18.0125 20.625C18.0125 21.1375 17.5875 21.5625 17.075 21.5625Z" fill="#BA0F43" fill-opacity="0.5"/>
<path d="M18.125 16.5625H11.875C11.3625 16.5625 10.9375 16.1375 10.9375 15.625C10.9375 15.1125 11.3625 14.6875 11.875 14.6875H18.125C18.6375 14.6875 19.0625 15.1125 19.0625 15.625C19.0625 16.1375 18.6375 16.5625 18.125 16.5625Z" fill="#BA0F43" fill-opacity="0.5"/>
</svg>
